# xmcd
#
# Track frame offsets:
#	150
#	16319
#	29544
#	49563
#	61997
#	80883
#	98150
#	113063
#	134427
#	149478
#
# Disc length: 2211 seconds
#
# Revision: 1
# Processed by: cddbd v1.5.2PL0 Copyright (c) Steve Scherf et al.
# Submitted via: audiograbber 1.83.01
#
DISCID=8908a10a
DTITLE=Burning Streets - Is it in Black and White?
DYEAR=2010
DGENRE=Punk Rock
TTITLE0=Kiss the World Goodbye
TTITLE1=You're Alive Today
TTITLE2=Asleep at the Wheel
TTITLE3=Tea Party
TTITLE4=The Draw
TTITLE5=Final Chance (For First Impressions)
TTITLE6=The Reason
TTITLE7=He's Alright
TTITLE8=13 Hours
TTITLE9=Throwing Rocks
EXTD=
EXTT0=
EXTT1=
EXTT2=
EXTT3=
EXTT4=
EXTT5=
EXTT6=
EXTT7=
EXTT8=
EXTT9=
PLAYORDER=
